<svg version="1.0" xmlns="http://www.w3.org/2000/svg"
     width="300.000000pt" height="80.000000pt" viewBox="0 0 300.000000 80.000000"
     preserveAspectRatio="xMidYMid meet">
    <g transform="translate(0.000000,80.000000) scale(0.100000,-0.100000)"
       fill="#000000" stroke="none">
        <path d="M405 626 c-11 -7 -54 -61 -95 -119 l-75 -106 -60 -4 -60 -3 60 -2 60
-3 75 -106 c41 -58 84 -112 96 -119 17 -12 197 -14 1100 -12 l1079 3 86 115
86 115 59 6 59 6 -60 2 -60 2 -60 86 c-33 48 -74 101 -91 120 l-31 33 -1074 0
c-900 0 -1078 -2 -1094 -14z m2174 -14 c12 -9 55 -62 95 -117 l72 -100 -74
-103 c-41 -57 -84 -110 -96 -117 -18 -13 -170 -15 -1079 -15 -673 0 -1065 4
-1077 10 -17 9 -170 211 -170 225 0 13 152 215 168 225 11 6 411 10 1078 10
997 0 1063 -1 1083 -18z"/>
        <path d="M689 443 c-1 -5 -1 -16 0 -25 2 -13 -5 -18 -23 -18 -19 0 -26 5 -26
20 0 11 -4 20 -10 20 -5 0 -10 -22 -10 -50 0 -27 5 -50 10 -50 6 0 10 12 10
26 0 20 4 25 22 22 14 -2 25 -13 29 -28 5 -17 7 -7 8 33 1 31 -1 57 -4 57 -3
0 -6 -3 -6 -7z"/>
        <path d="M475 394 c-17 -45 -13 -75 6 -41 6 9 16 17 24 17 8 0 18 -8 24 -17
18 -33 21 -7 5 40 -9 26 -22 47 -29 47 -7 0 -20 -21 -30 -46z"/>
        <path d="M724 406 c-12 -31 0 -61 25 -61 31 0 50 28 35 53 -14 22 -52 28 -60
8z m46 -27 c0 -20 -24 -26 -35 -9 -8 13 14 42 26 34 5 -3 9 -14 9 -25z"/>
        <path d="M807 381 c9 -23 19 -41 23 -41 8 0 31 72 25 78 -2 3 -10 -8 -16 -24
l-12 -29 -6 24 c-4 14 -12 26 -18 28 -8 3 -7 -9 4 -36z"/>
        <path d="M874 395 c-4 -15 -1 -32 6 -40 14 -17 50 -20 50 -5 0 6 -7 10 -16 8
-10 -2 -19 3 -21 10 -3 7 5 12 21 12 28 0 33 9 14 28 -20 20 -47 14 -54 -13z"/>
        <path d="M950 380 c0 -22 5 -40 10 -40 6 0 10 14 10 30 0 17 5 30 10 30 6 0
10 5 10 10 0 6 -9 10 -20 10 -17 0 -20 -7 -20 -40z"/>
    </g>
</svg>
